<svg width="512" height="512" viewBox="0 0 512 512" fill="none" xmlns="http://www.w3.org/2000/svg">
<rect width="512" height="512" rx="107" fill="black" fill-opacity="0.72"/>
<g clip-path="url(#clip0_4_2)">
<path fill-rule="evenodd" clip-rule="evenodd" d="M258.942 249.768C257.562 249.006 255.937 248.816 254.418 249.238C252.899 249.661 251.607 250.662 250.818 252.028C250.03 253.393 249.809 255.014 250.202 256.54C250.596 258.067 251.573 259.379 252.923 260.193V262.375C252.923 262.457 252.939 262.538 252.971 262.614C253.002 262.69 253.048 262.759 253.106 262.817C253.164 262.875 253.233 262.921 253.309 262.952C253.385 262.984 253.466 263 253.548 263C253.63 263 253.711 262.984 253.787 262.952C253.863 262.921 253.932 262.875 253.99 262.817C254.048 262.759 254.094 262.69 254.125 262.614C254.157 262.538 254.173 262.457 254.173 262.375V259.825C254.173 259.71 254.141 259.597 254.081 259.499C254.021 259.401 253.935 259.321 253.833 259.268C253.078 258.883 252.439 258.303 251.982 257.589C251.525 256.875 251.267 256.052 251.234 255.205C251.201 254.358 251.394 253.517 251.794 252.769C252.193 252.022 252.785 251.394 253.508 250.951C254.231 250.508 255.059 250.266 255.907 250.25C256.754 250.233 257.591 250.443 258.331 250.857C259.07 251.271 259.686 251.875 260.115 252.606C260.544 253.338 260.77 254.17 260.77 255.018V258.942C260.77 259.036 260.732 259.127 260.666 259.194C260.599 259.26 260.508 259.298 260.414 259.298H258.452C258.286 259.298 258.127 259.364 258.01 259.481C257.893 259.598 257.827 259.757 257.827 259.923V262.375C257.827 262.541 257.893 262.7 258.01 262.817C258.127 262.934 258.286 263 258.452 263C258.618 263 258.777 262.934 258.894 262.817C259.011 262.7 259.077 262.541 259.077 262.375V260.548H260.414C260.625 260.548 260.834 260.506 261.029 260.426C261.223 260.345 261.4 260.227 261.55 260.078C261.699 259.928 261.817 259.751 261.898 259.557C261.978 259.362 262.02 259.153 262.02 258.942V255.019C262.02 253.949 261.734 252.899 261.193 251.976C260.652 251.053 259.875 250.291 258.942 249.768ZM254.375 252.095C255.074 251.692 255.891 251.543 256.687 251.673C257.484 251.803 258.211 252.204 258.745 252.809C259.105 253.216 259.005 253.801 258.635 254.134C257.547 255.117 255.744 256.391 253.952 256.866C253.496 256.986 252.996 256.766 252.829 256.296C252.556 255.526 252.561 254.684 252.843 253.917C253.125 253.149 253.667 252.504 254.375 252.095Z" fill="black"/>
</g>
<path d="M256 169.106C256.015 163.908 255.014 158.759 253.056 153.962C251.098 149.165 248.223 144.817 244.6 141.175C240.976 137.532 236.677 134.667 231.956 132.75C227.235 130.832 222.187 129.9 217.109 130.008C212.031 130.117 207.025 131.263 202.387 133.381C197.748 135.498 193.569 138.543 190.097 142.337C186.625 146.132 183.93 150.598 182.169 155.474C180.408 160.35 179.618 165.537 179.844 170.731C172.38 172.695 165.45 176.372 159.58 181.483C153.709 186.594 149.052 193.006 145.961 200.232C142.87 207.458 141.427 215.309 141.74 223.191C142.052 231.072 144.113 238.778 147.767 245.723C141.343 251.064 136.292 257.931 133.053 265.725C129.813 273.519 128.484 282.006 129.18 290.446C129.876 298.886 132.576 307.025 137.046 314.153C141.516 321.282 147.62 327.184 154.827 331.348C153.937 338.395 154.468 345.555 156.388 352.384C158.307 359.213 161.574 365.567 165.987 371.053C170.4 376.54 175.864 381.042 182.044 384.282C188.223 387.522 194.986 389.431 201.915 389.891C208.843 390.351 215.79 389.353 222.327 386.957C228.864 384.562 234.851 380.82 239.92 375.964C244.988 371.107 249.03 365.239 251.796 358.721C254.562 352.203 255.992 345.173 256 338.067V169.106Z" stroke="white" stroke-width="21" stroke-linecap="round" stroke-linejoin="round"/>
<path d="M217 273C227.914 269.161 237.445 262.171 244.387 252.915C251.329 243.659 255.37 232.553 256 221M178.039 170.625C178.296 176.914 180.071 183.046 183.213 188.5M145.201 245.648C147.579 243.711 150.124 241.988 152.806 240.5M178 338C169.041 338.004 160.232 335.693 152.429 331.292M256 273H321.5M256 338H334C340.896 338 347.509 340.739 352.385 345.615C357.261 350.491 360 357.104 360 364V367M256 208H352.5M308 208V169C308 162.104 310.739 155.491 315.615 150.615C320.491 145.739 327.604 144 334.5 144" stroke="white" stroke-width="21" stroke-linecap="round" stroke-linejoin="round"/>
<path d="M321.5 285C327.851 285 333 279.851 333 273.5C333 267.149 327.851 262 321.5 262C315.149 262 310 267.149 310 273.5C310 279.851 315.149 285 321.5 285Z" fill="#13C6F8" stroke="black" stroke-width="4" stroke-linecap="round" stroke-linejoin="round"/>
<path d="M342.5 155C348.851 155 354 149.851 354 143.5C354 137.149 348.851 132 342.5 132C336.149 132 331 137.149 331 143.5C331 149.851 336.149 155 342.5 155Z" fill="#13C6F8" stroke="black" stroke-width="4" stroke-linecap="round" stroke-linejoin="round"/>
<path d="M359.5 384C365.851 384 371 378.851 371 372.5C371 366.149 365.851 361 359.5 361C353.149 361 348 366.149 348 372.5C348 378.851 353.149 384 359.5 384Z" fill="#13C6F8" stroke="black" stroke-width="4" stroke-linecap="round" stroke-linejoin="round"/>
<path d="M359.5 221C365.851 221 371 215.851 371 209.5C371 203.149 365.851 198 359.5 198C353.149 198 348 203.149 348 209.5C348 215.851 353.149 221 359.5 221Z" fill="#13C6F8" stroke="black" stroke-width="4" stroke-linecap="round" stroke-linejoin="round"/>
<mask id="path-9-inside-1_4_2" fill="white">
<path d="M465.252 252.468C480.901 250.95 492.464 236.859 488.723 221.588C480.132 186.525 462.921 153.689 438.298 125.784C407.189 90.5303 365.648 64.7312 318.927 51.6497C272.206 38.5681 222.404 38.7917 175.818 52.292C129.233 65.7923 87.956 91.9631 57.2078 127.495C26.4596 163.027 7.62102 206.323 3.0743 251.91C-1.47242 297.497 8.47694 343.326 31.6642 383.603C54.8515 423.879 90.2352 456.794 133.341 478.184C168.497 495.629 207.501 504.77 246.999 504.996C261.785 505.08 272.511 491.759 270.895 477.063C269.307 462.63 256.382 452.341 241.87 451.865C213.297 450.928 185.197 443.943 159.719 431.3C126.487 414.809 99.208 389.434 81.3319 358.383C63.4559 327.332 55.7855 292 59.2908 256.856C62.796 221.711 77.3195 188.331 101.025 160.938C124.73 133.545 156.552 113.369 192.467 102.961C228.381 92.5532 266.776 92.3809 302.795 102.466C338.814 112.551 370.84 132.441 394.823 159.62C412.482 179.632 425.197 202.935 432.216 227.85C436.403 242.711 449.885 253.959 465.252 252.468Z"/>
</mask>
<path d="M465.252 252.468C480.901 250.95 492.464 236.859 488.723 221.588C480.132 186.525 462.921 153.689 438.298 125.784C407.189 90.5303 365.648 64.7312 318.927 51.6497C272.206 38.5681 222.404 38.7917 175.818 52.292C129.233 65.7923 87.956 91.9631 57.2078 127.495C26.4596 163.027 7.62102 206.323 3.0743 251.91C-1.47242 297.497 8.47694 343.326 31.6642 383.603C54.8515 423.879 90.2352 456.794 133.341 478.184C168.497 495.629 207.501 504.77 246.999 504.996C261.785 505.08 272.511 491.759 270.895 477.063C269.307 462.63 256.382 452.341 241.87 451.865C213.297 450.928 185.197 443.943 159.719 431.3C126.487 414.809 99.208 389.434 81.3319 358.383C63.4559 327.332 55.7855 292 59.2908 256.856C62.796 221.711 77.3195 188.331 101.025 160.938C124.73 133.545 156.552 113.369 192.467 102.961C228.381 92.5532 266.776 92.3809 302.795 102.466C338.814 112.551 370.84 132.441 394.823 159.62C412.482 179.632 425.197 202.935 432.216 227.85C436.403 242.711 449.885 253.959 465.252 252.468Z" fill="white" stroke="black" stroke-width="36" mask="url(#path-9-inside-1_4_2)"/>
<defs>
<clipPath id="clip0_4_2">
<rect width="14" height="14" fill="white" transform="translate(249 249)"/>
</clipPath>
</defs>
</svg>
