<svg width="512" height="512" viewBox="0 0 512 512" fill="none" xmlns="http://www.w3.org/2000/svg">
<rect width="512" height="512" rx="72" fill="black"/>
<path d="M112.56 202.04C116.95 121.244 187.182 57 274.28 57C363.919 57 436 125.382 436 209.444C436 270.422 398.342 322.471 343.589 346.862V449H181.869V383.667H158.766C133.122 383.667 112.56 364.284 112.56 340.111V274.778H77.9059C68.2027 274.778 62.658 263.889 68.2027 257.138L112.56 202.04Z" stroke="white" stroke-width="17" stroke-linejoin="bevel"/>
<path d="M308.914 132.07C307.46 133.444 305.49 134.216 303.435 134.216C301.38 134.216 299.409 133.444 297.955 132.07C295.831 130.054 293.305 128.455 290.523 127.367C287.742 126.279 284.76 125.723 281.75 125.731C275.395 125.731 269.714 128.142 265.545 132.07C264.825 132.751 263.971 133.291 263.031 133.659C262.091 134.027 261.083 134.217 260.066 134.217C258.01 134.217 256.039 133.445 254.586 132.07C253.867 131.39 253.296 130.582 252.907 129.693C252.517 128.804 252.317 127.851 252.317 126.889C252.317 124.945 253.133 123.081 254.586 121.707C258.152 118.332 262.387 115.656 267.048 113.831C271.709 112.007 276.705 111.069 281.75 111.073C286.795 111.069 291.791 112.007 296.452 113.831C301.113 115.656 305.348 118.332 308.914 121.707C310.367 123.081 311.183 124.945 311.183 126.889C311.183 128.832 310.367 130.696 308.914 132.07ZM218.929 125.071C212.082 128.853 205.89 133.606 200.569 139.165L200.561 139.172C195.221 144.751 190.822 151.074 187.518 157.92C184.126 164.944 181.941 172.436 181.047 180.112C180.935 181.069 181.023 182.037 181.307 182.961C181.59 183.886 182.064 184.748 182.7 185.5C183.336 186.251 184.123 186.876 185.014 187.34C185.906 187.804 186.886 188.098 187.898 188.203C188.909 188.309 189.933 188.226 190.91 187.957C191.888 187.689 192.8 187.241 193.594 186.64C194.389 186.038 195.05 185.294 195.541 184.451C196.031 183.608 196.342 182.681 196.454 181.725C197.181 175.597 198.925 169.616 201.623 164.003C206.933 153.004 215.709 143.827 226.748 137.728C227.627 137.243 228.396 136.598 229.012 135.832C229.627 135.065 230.077 134.191 230.335 133.26C230.594 132.329 230.655 131.359 230.517 130.406C230.379 129.452 230.044 128.533 229.531 127.702C229.017 126.871 228.336 126.144 227.525 125.562C226.714 124.98 225.79 124.554 224.806 124.31C222.818 123.817 220.703 124.09 218.929 125.071ZM336 206.929C336 204.985 336.817 203.121 338.27 201.747C339.723 200.372 341.695 199.6 343.75 199.6C345.805 199.6 347.777 200.372 349.23 201.747C350.684 203.121 351.5 204.985 351.5 206.929C351.489 213.541 348.774 219.893 343.924 224.656C339.073 229.418 332.462 232.221 325.476 232.478C327.204 235.842 328.25 239.58 328.25 243.574C328.25 245.518 327.434 247.382 325.98 248.757C324.527 250.131 322.555 250.903 320.5 250.903C318.445 250.903 316.473 250.131 315.02 248.757C313.567 247.382 312.75 245.518 312.75 243.574C312.75 240.659 311.525 237.862 309.345 235.801C307.165 233.739 304.208 232.581 301.125 232.581H253.215C251.159 232.581 249.188 231.809 247.734 230.434C246.281 229.06 245.465 227.196 245.465 225.252C245.465 223.308 246.281 221.444 247.734 220.069C249.188 218.695 251.159 217.923 253.215 217.923H270.125C273.206 217.917 276.16 216.757 278.338 214.696C280.517 212.636 281.744 209.843 281.75 206.929C281.75 204.985 282.567 203.121 284.02 201.747C285.473 200.372 287.445 199.6 289.5 199.6C291.555 199.6 293.527 200.372 294.98 201.747C296.434 203.121 297.25 204.985 297.25 206.929C297.25 210.88 296.227 214.581 294.538 217.923H324.375C327.456 217.917 330.41 216.757 332.588 214.696C334.767 212.636 335.994 209.843 336 206.929Z" fill="white"/>
<g filter="url(#filter0_d_23_14)">
<path d="M398 201.147C398 196.544 397.651 192.088 397.117 187.764C390.087 130.465 338.697 86.0147 276.24 86H266.692C202.235 86.0073 150.008 135.398 150 196.353C150 202.073 151.191 207.737 153.506 213.022C155.821 218.306 159.213 223.108 163.49 227.153C172.128 235.321 183.843 239.91 196.058 239.91H205.676C208.282 250.337 214.533 259.627 223.416 266.277C232.299 272.928 243.295 276.549 254.625 276.555H309.681L333.83 299.392C334.643 300.16 335.678 300.683 336.805 300.895C337.932 301.106 339.1 300.997 340.161 300.582C341.223 300.166 342.13 299.462 342.769 298.559C343.408 297.656 343.749 296.595 343.75 295.508V275.947C355.662 274.542 366.886 269.894 376.055 262.567C385.224 255.239 391.944 245.55 395.396 234.677C396.504 231.174 397.14 227.48 397.543 223.72L397.566 223.661C397.783 222.987 398 222.32 398 221.587C397.995 221.138 397.974 220.693 397.938 220.253L397.884 219.411C397.889 219.176 397.907 218.949 397.938 218.729C397.979 218.46 398 218.192 398 217.923V201.147ZM380.547 230.492C377.686 239.564 371.805 247.52 363.779 253.179C355.753 258.837 346.011 261.894 336 261.897H254.625C245.929 261.893 237.548 258.816 231.126 253.271C224.704 247.725 220.705 240.111 219.913 231.921L219.866 231.452C220.125 221.933 224.312 212.888 231.532 206.251C238.752 199.614 248.431 195.911 258.5 195.936C260.555 195.936 262.527 195.163 263.98 193.789C265.433 192.415 266.25 190.55 266.25 188.607C266.25 186.663 265.433 184.799 263.98 183.424C262.527 182.05 260.555 181.278 258.5 181.278C249.399 181.277 240.444 183.442 232.46 187.573C230.936 184.335 228.804 181.385 226.167 178.866C224.714 177.492 222.743 176.72 220.688 176.72C218.633 176.72 216.662 177.492 215.208 178.866C213.755 180.241 212.939 182.104 212.939 184.048C212.939 185.991 213.755 187.855 215.208 189.23C217.409 191.318 218.905 193.993 219.471 196.991C211.595 204.733 206.488 214.618 204.87 225.252H196.058C192.043 225.258 188.067 224.513 184.357 223.06C180.648 221.607 177.279 219.475 174.444 216.787C171.603 214.106 169.35 210.921 167.815 207.414C166.281 203.908 165.494 200.149 165.5 196.353C165.5 169.903 176.815 146.025 195.136 128.684C204.518 119.78 215.671 112.719 227.952 107.909C240.233 103.099 253.399 100.635 266.692 100.658H276.24C328.087 100.643 371.146 135.837 380.485 182.296C371.939 174.415 361.034 169.212 349.253 167.396C353.151 160.639 355.375 152.878 355.375 144.632C355.375 142.689 354.558 140.824 353.105 139.45C351.652 138.075 349.68 137.303 347.625 137.303C345.57 137.303 343.598 138.075 342.145 139.45C340.692 140.824 339.875 142.689 339.875 144.632C339.884 148.965 338.985 153.256 337.232 157.258C335.479 161.261 332.906 164.896 329.66 167.953C326.427 171.022 322.583 173.456 318.351 175.114C314.119 176.772 309.581 177.621 305 177.613C302.945 177.613 300.973 178.385 299.52 179.76C298.067 181.134 297.25 182.998 297.25 184.942C297.25 186.886 298.067 188.75 299.52 190.125C300.973 191.499 302.945 192.271 305 192.271C316.982 192.278 328.57 188.227 337.666 180.852L337.79 180.889C338.463 181.109 339.165 181.239 339.875 181.278C351.671 181.278 362.28 185.778 370.015 193.085C377.438 200.112 381.845 209.491 382.384 219.411C382.274 223.163 381.657 226.888 380.547 230.492Z" fill="white"/>
</g>
<defs>
<filter id="filter0_d_23_14" x="146" y="86" width="256" height="223" filterUnits="userSpaceOnUse" color-interpolation-filters="sRGB">
<feFlood flood-opacity="0" result="BackgroundImageFix"/>
<feColorMatrix in="SourceAlpha" type="matrix" values="0 0 0 0 0 0 0 0 0 0 0 0 0 0 0 0 0 0 127 0" result="hardAlpha"/>
<feOffset dy="4"/>
<feGaussianBlur stdDeviation="2"/>
<feComposite in2="hardAlpha" operator="out"/>
<feColorMatrix type="matrix" values="0 0 0 0 0 0 0 0 0 0 0 0 0 0 0 0 0 0 0.25 0"/>
<feBlend mode="normal" in2="BackgroundImageFix" result="effect1_dropShadow_23_14"/>
<feBlend mode="normal" in="SourceGraphic" in2="effect1_dropShadow_23_14" result="shape"/>
</filter>
</defs>
</svg>
